<?xml version="1.0" encoding="utf-8"?>
<!-- Generator: Adobe Illustrator 20.1.0, SVG Export Plug-In . SVG Version: 6.00 Build 0)  -->
<svg version="1.1" id="Layer_1" xmlns="http://www.w3.org/2000/svg" xmlns:xlink="http://www.w3.org/1999/xlink" x="0px" y="0px"
	 viewBox="0 0 302 147" style="enable-background:new 0 0 302 147;" xml:space="preserve">
<g>
	<path d="M100.1,35.2c7.6-0.5,22.9-0.9,45-0.9v14.4H79.7V28.1c22.5-7.3,37.7-11.7,45-13.2v-0.5c-7.4,0.4-22.7,0.9-45,0.9V0.7h65.4
		v20.7c-22.2,7.2-37.6,11.7-45,13.3L100.1,35.2"/>
	<polyline points="79.7,59 145.1,59 145.1,92.3 134.6,92.3 134.6,75.3 119.1,75.3 119.1,92.3 108.6,92.3 108.6,75.3 79.7,75.3 
		79.7,59 	"/>
</g>
<g>
	<path d="M114.2,130.7c-1.5,10.3-6.5,15.3-16.3,15.3c-13.2,0-18.1-9.9-18.1-24.4v-21.5h65.4V119c0,14.7-3.4,24.6-16,24.6
		c-9.3,0-13.7-5.7-14.5-12.9L114.2,130.7 M119.1,116.4v4.5c0,4.5,2.5,6.8,8,6.8c5.3,0,7.5-2.6,7.5-6.9v-4.4H119.1z M90.2,116.4v4.5
		c0,5.7,2.4,8.5,8.7,8.5c5.8,0,9.7-2.6,9.7-8.4v-4.6C108.6,116.4,90.2,116.4,90.2,116.4z"/>
	<path d="M33.9,147C10.4,147,0,138.5,0,122.7s10.4-24.3,34-24.3c23.5,0,34,8.5,34,24.3C67.9,138.5,57.5,147,33.9,147L33.9,147
		 M10.4,122.8c0,4.2,5,7.5,23.6,7.5c18.4,0,23.4-3.3,23.4-7.6c0-4.3-5-7.6-23.4-7.6C15.4,115.1,10.4,118.4,10.4,122.8L10.4,122.8z"
		/>
</g>
<g>
	<path d="M46.3,57.4c-7.6,0.5-22.9,0.9-45,0.9V43.9h65.4v20.6c-22.5,7.3-37.7,11.7-45,13.2v0.5c7.4-0.4,22.7-0.9,45-0.9v14.4H1.3
		V71.2c22.2-7.2,37.6-11.7,45-13.3V57.4"/>
	<polyline points="66.7,34.1 1.3,34.1 1.3,0.7 11.8,0.7 11.8,17.8 27.3,17.8 27.3,0.7 37.8,0.7 37.8,17.8 66.7,17.8 66.7,34.1 	"/>
	<path d="M260.9,85.4c15.1-2,29.8-9.3,41.1-22v-0.2c-11.3-12.6-25.9-20-41-22c8.8,3.5,15,12.1,15,22.1C276,73.4,269.7,82,260.9,85.4
		"/>
	<path d="M243.6,41.2c-15.2,2-29.9,9.4-41.2,22.1c11.3,12.7,26,20.1,41.3,22.1c-8.9-3.5-15.1-12.1-15.1-22.1
		C228.5,53.2,234.8,44.6,243.6,41.2"/>
	<path d="M282.6,105.7l-1.6,0.6v1.7c0,0,0,17.8,0,36.6h21V96.3C295.9,100.2,289.4,103.3,282.6,105.7"/>
	<path d="M223.5,106.4l-1.6-0.5c-21.4-7.4-39-22.1-51.1-42.5c17.3-29.1,46.5-46.6,78.9-47.4h4.9c17.1,0.5,33.3,5.6,47.4,14.5V0.7
		H158.2v143.8h65.4C223.5,125.1,223.5,106.4,223.5,106.4"/>
</g>
</svg>
